<?xml version="1.0" encoding="UTF-8" standalone="no"?>
<!DOCTYPE svg PUBLIC "-//W3C//DTD SVG 1.1//EN"
 "http://www.w3.org/Graphics/SVG/1.1/DTD/svg11.dtd">
<!-- Generated by graphviz version 2.43.0 (0)
 -->
<!-- Title: G Pages: 1 -->
<svg width="938pt" height="553pt"
 viewBox="0.00 0.00 938.30 552.80" xmlns="http://www.w3.org/2000/svg" xmlns:xlink="http://www.w3.org/1999/xlink">
<g id="graph0" class="graph" transform="scale(1 1) rotate(0) translate(14.4 538.4)">
<title>G</title>
<polygon fill="white" stroke="transparent" points="-14.4,14.4 -14.4,-538.4 923.9,-538.4 923.9,14.4 -14.4,14.4"/>
<!-- submit -->
<g id="node1" class="node">
<title>submit</title>
<path fill="#dcfce7" stroke="#86efac" d="M363.5,-524C363.5,-524 196.5,-524 196.5,-524 190.5,-524 184.5,-518 184.5,-512 184.5,-512 184.5,-492 184.5,-492 184.5,-486 190.5,-480 196.5,-480 196.5,-480 363.5,-480 363.5,-480 369.5,-480 375.5,-486 375.5,-492 375.5,-492 375.5,-512 375.5,-512 375.5,-518 369.5,-524 363.5,-524"/>
<text text-anchor="middle" x="280" y="-505.8" font-family="Noto Sans CJK SC, Arial" font-size="14.00">dw_mci_submit_data(data)</text>
<text text-anchor="middle" x="280" y="-490.8" font-family="Noto Sans CJK SC, Arial" font-size="14.00">设置 host&#45;&gt;data / dir_status</text>
</g>
<!-- trydma -->
<g id="node2" class="node">
<title>trydma</title>
<path fill="#fef9c3" stroke="#fde047" d="M405.5,-439C405.5,-439 154.5,-439 154.5,-439 148.5,-439 142.5,-433 142.5,-427 142.5,-427 142.5,-407 142.5,-407 142.5,-401 148.5,-395 154.5,-395 154.5,-395 405.5,-395 405.5,-395 411.5,-395 417.5,-401 417.5,-407 417.5,-407 417.5,-427 417.5,-427 417.5,-433 411.5,-439 405.5,-439"/>
<text text-anchor="middle" x="280" y="-420.8" font-family="Noto Sans CJK SC, Arial" font-size="14.00">dw_mci_submit_data_dma()</text>
<text text-anchor="middle" x="280" y="-405.8" font-family="Noto Sans CJK SC, Arial" font-size="14.00">检查 host&#45;&gt;use_dma + sg/map/alignment</text>
</g>
<!-- submit&#45;&gt;trydma -->
<g id="edge1" class="edge">
<title>submit&#45;&gt;trydma</title>
<path fill="none" stroke="#475569" d="M280,-479.63C280,-469.77 280,-457.92 280,-447.25"/>
<polygon fill="#475569" stroke="#475569" points="282.8,-447.01 280,-439.01 277.2,-447.01 282.8,-447.01"/>
</g>
<!-- dmaok -->
<g id="node3" class="node">
<title>dmaok</title>
<path fill="#dbeafe" stroke="#93c5fd" d="M256,-342C256,-342 12,-342 12,-342 6,-342 0,-336 0,-330 0,-330 0,-310 0,-310 0,-304 6,-298 12,-298 12,-298 256,-298 256,-298 262,-298 268,-304 268,-310 268,-310 268,-330 268,-330 268,-336 262,-342 256,-342"/>
<text text-anchor="middle" x="134" y="-323.8" font-family="Noto Sans CJK SC, Arial" font-size="14.00">DMA 成功</text>
<text text-anchor="middle" x="134" y="-308.8" font-family="Noto Sans CJK SC, Arial" font-size="14.00">using_dma=1, 开 DMA, 关 RXDR/TXDR</text>
</g>
<!-- trydma&#45;&gt;dmaok -->
<g id="edge2" class="edge">
<title>trydma&#45;&gt;dmaok</title>
<path fill="none" stroke="#475569" d="M247.6,-394.92C225.58,-380.59 196.33,-361.56 173.03,-346.39"/>
<polygon fill="#475569" stroke="#475569" points="174.54,-344.04 166.31,-342.02 171.49,-348.73 174.54,-344.04"/>
<text text-anchor="middle" x="237.5" y="-365.4" font-family="Noto Sans CJK SC, Arial" font-size="12.00">可 DMA</text>
</g>
<!-- pio -->
<g id="node5" class="node">
<title>pio</title>
<path fill="#ffedd5" stroke="#fdba74" d="M542,-342C542,-342 312,-342 312,-342 306,-342 300,-336 300,-330 300,-330 300,-310 300,-310 300,-304 306,-298 312,-298 312,-298 542,-298 542,-298 548,-298 554,-304 554,-310 554,-310 554,-330 554,-330 554,-336 548,-342 542,-342"/>
<text text-anchor="middle" x="427" y="-323.8" font-family="Noto Sans CJK SC, Arial" font-size="14.00">PIO 回退</text>
<text text-anchor="middle" x="427" y="-308.8" font-family="Noto Sans CJK SC, Arial" font-size="14.00">sg_miter + 开 RXDR/TXDR + 关 DMA</text>
</g>
<!-- trydma&#45;&gt;pio -->
<g id="edge3" class="edge">
<title>trydma&#45;&gt;pio</title>
<path fill="none" stroke="#475569" d="M312.62,-394.92C334.8,-380.59 364.24,-361.56 387.71,-346.39"/>
<polygon fill="#475569" stroke="#475569" points="389.27,-348.72 394.47,-342.02 386.23,-344.02 389.27,-348.72"/>
<text text-anchor="middle" x="419" y="-365.4" font-family="Noto Sans CJK SC, Arial" font-size="12.00">不可 DMA / start 失败</text>
</g>
<!-- dmafinish -->
<g id="node4" class="node">
<title>dmafinish</title>
<path fill="#bfdbfe" stroke="#60a5fa" d="M291,-193C291,-193 119,-193 119,-193 113,-193 107,-187 107,-181 107,-181 107,-161 107,-161 107,-155 113,-149 119,-149 119,-149 291,-149 291,-149 297,-149 303,-155 303,-161 303,-161 303,-181 303,-181 303,-187 297,-193 291,-193"/>
<text text-anchor="middle" x="205" y="-174.8" font-family="Noto Sans CJK SC, Arial" font-size="14.00">DMA callback</text>
<text text-anchor="middle" x="205" y="-159.8" font-family="Noto Sans CJK SC, Arial" font-size="14.00">EVENT_XFER_COMPLETE</text>
</g>
<!-- dmaok&#45;&gt;dmafinish -->
<g id="edge4" class="edge">
<title>dmaok&#45;&gt;dmafinish</title>
<path fill="none" stroke="#475569" d="M144.17,-297.94C156.56,-272.29 177.54,-228.85 191.33,-200.3"/>
<polygon fill="#475569" stroke="#475569" points="193.89,-201.44 194.85,-193.02 188.85,-199.01 193.89,-201.44"/>
</g>
<!-- task -->
<g id="node9" class="node">
<title>task</title>
<path fill="#ede9fe" stroke="#c4b5fd" d="M708,-44C708,-44 380,-44 380,-44 374,-44 368,-38 368,-32 368,-32 368,-12 368,-12 368,-6 374,0 380,0 380,0 708,0 708,0 714,0 720,-6 720,-12 720,-12 720,-32 720,-32 720,-38 714,-44 708,-44"/>
<text text-anchor="middle" x="544" y="-25.8" font-family="Noto Sans CJK SC, Arial" font-size="14.00">tasklet</text>
<text text-anchor="middle" x="544" y="-10.8" font-family="Noto Sans CJK SC, Arial" font-size="14.00">SENDING_DATA &#45;&gt; DATA_BUSY &#45;&gt; request_end/stop</text>
</g>
<!-- dmafinish&#45;&gt;task -->
<g id="edge5" class="edge">
<title>dmafinish&#45;&gt;task</title>
<path fill="none" stroke="#475569" d="M212.88,-148.75C221.28,-129.12 236.49,-100.71 259,-85 288.72,-64.25 324.11,-50.25 359.66,-40.86"/>
<polygon fill="#475569" stroke="#475569" points="360.67,-43.5 367.73,-38.81 359.29,-38.07 360.67,-43.5"/>
</g>
<!-- rx -->
<g id="node6" class="node">
<title>rx</title>
<path fill="#fed7aa" stroke="#fb923c" d="M485,-257C485,-257 299,-257 299,-257 293,-257 287,-251 287,-245 287,-245 287,-225 287,-225 287,-219 293,-213 299,-213 299,-213 485,-213 485,-213 491,-213 497,-219 497,-225 497,-225 497,-245 497,-245 497,-251 491,-257 485,-257"/>
<text text-anchor="middle" x="392" y="-238.8" font-family="Noto Sans CJK SC, Arial" font-size="14.00">RXDR/TXDR IRQ</text>
<text text-anchor="middle" x="392" y="-223.8" font-family="Noto Sans CJK SC, Arial" font-size="14.00">read_data_pio / write_data_pio</text>
</g>
<!-- pio&#45;&gt;rx -->
<g id="edge6" class="edge">
<title>pio&#45;&gt;rx</title>
<path fill="none" stroke="#475569" d="M417.99,-297.63C413.75,-287.58 408.64,-275.45 404.07,-264.62"/>
<polygon fill="#475569" stroke="#475569" points="406.55,-263.3 400.86,-257.01 401.39,-265.47 406.55,-263.3"/>
</g>
<!-- piofinish -->
<g id="node7" class="node">
<title>piofinish</title>
<path fill="#fde68a" stroke="#f59e0b" d="M459,-129C459,-129 287,-129 287,-129 281,-129 275,-123 275,-117 275,-117 275,-97 275,-97 275,-91 281,-85 287,-85 287,-85 459,-85 459,-85 465,-85 471,-91 471,-97 471,-97 471,-117 471,-117 471,-123 465,-129 459,-129"/>
<text text-anchor="middle" x="373" y="-110.8" font-family="Noto Sans CJK SC, Arial" font-size="14.00">SG 搬完</text>
<text text-anchor="middle" x="373" y="-95.8" font-family="Noto Sans CJK SC, Arial" font-size="14.00">EVENT_XFER_COMPLETE</text>
</g>
<!-- rx&#45;&gt;piofinish -->
<g id="edge7" class="edge">
<title>rx&#45;&gt;piofinish</title>
<path fill="none" stroke="#475569" d="M388.82,-212.91C385.7,-192.2 380.9,-160.42 377.41,-137.26"/>
<polygon fill="#475569" stroke="#475569" points="380.15,-136.65 376.19,-129.16 374.61,-137.49 380.15,-136.65"/>
</g>
<!-- piofinish&#45;&gt;task -->
<g id="edge8" class="edge">
<title>piofinish&#45;&gt;task</title>
<path fill="none" stroke="#475569" d="M416.59,-84.84C439.91,-73.52 468.75,-59.53 493.09,-47.71"/>
<polygon fill="#475569" stroke="#475569" points="494.51,-50.13 500.49,-44.12 492.07,-45.09 494.51,-50.13"/>
</g>
<!-- dataover -->
<g id="node8" class="node">
<title>dataover</title>
<path fill="#dcfce7" stroke="#86efac" d="M686.5,-129C686.5,-129 515.5,-129 515.5,-129 509.5,-129 503.5,-123 503.5,-117 503.5,-117 503.5,-97 503.5,-97 503.5,-91 509.5,-85 515.5,-85 515.5,-85 686.5,-85 686.5,-85 692.5,-85 698.5,-91 698.5,-97 698.5,-97 698.5,-117 698.5,-117 698.5,-123 692.5,-129 686.5,-129"/>
<text text-anchor="middle" x="601" y="-110.8" font-family="Noto Sans CJK SC, Arial" font-size="14.00">DATA_OVER IRQ</text>
<text text-anchor="middle" x="601" y="-95.8" font-family="Noto Sans CJK SC, Arial" font-size="14.00">EVENT_DATA_COMPLETE</text>
</g>
<!-- dataover&#45;&gt;task -->
<g id="edge9" class="edge">
<title>dataover&#45;&gt;task</title>
<path fill="none" stroke="#475569" d="M586.32,-84.63C579.22,-74.28 570.61,-61.74 563.01,-50.68"/>
<polygon fill="#475569" stroke="#475569" points="565.27,-49.02 558.43,-44.01 560.65,-52.19 565.27,-49.02"/>
</g>
<!-- err -->
<g id="node10" class="node">
<title>err</title>
<path fill="#fee2e2" stroke="#fca5a5" d="M897.5,-129C897.5,-129 742.5,-129 742.5,-129 736.5,-129 730.5,-123 730.5,-117 730.5,-117 730.5,-97 730.5,-97 730.5,-91 736.5,-85 742.5,-85 742.5,-85 897.5,-85 897.5,-85 903.5,-85 909.5,-91 909.5,-97 909.5,-97 909.5,-117 909.5,-117 909.5,-123 903.5,-129 897.5,-129"/>
<text text-anchor="middle" x="820" y="-110.8" font-family="Noto Sans CJK SC, Arial" font-size="14.00">DATA_ERROR IRQ/timer</text>
<text text-anchor="middle" x="820" y="-95.8" font-family="Noto Sans CJK SC, Arial" font-size="14.00">EVENT_DATA_ERROR</text>
</g>
<!-- err&#45;&gt;task -->
<g id="edge10" class="edge">
<title>err&#45;&gt;task</title>
<path fill="none" stroke="#475569" d="M750,-84.95C710.84,-73.17 661.94,-58.47 621.61,-46.34"/>
<polygon fill="#475569" stroke="#475569" points="622.4,-43.65 613.93,-44.03 620.78,-49.01 622.4,-43.65"/>
</g>
</g>
</svg>
